<mxfile host="app.diagrams.net" modified="2023-09-11T10:00:27.667Z" agent="Mozilla/5.0 (Windows NT 10.0; Win64; x64) AppleWebKit/537.36 (KHTML, like Gecko) Chrome/116.0.0.0 Safari/537.36" etag="EHhVVCuMtUTK3S502Gj8" version="21.2.9" type="github">
  <diagram name="Trang-1" id="vdjs2Y66wQAD1nvkVy92">
    <mxGraphModel dx="1313" dy="708" grid="1" gridSize="10" guides="1" tooltips="1" connect="1" arrows="1" fold="1" page="1" pageScale="1" pageWidth="827" pageHeight="1169" math="0" shadow="0">
      <root>
        <mxCell id="0" />
        <mxCell id="1" parent="0" />
        <mxCell id="_TY_uDhqN5zBfUsbwruv-29" value="" style="ellipse;whiteSpace=wrap;html=1;" vertex="1" parent="1">
          <mxGeometry x="1350" y="180.83" width="100" height="60.33" as="geometry" />
        </mxCell>
        <mxCell id="_TY_uDhqN5zBfUsbwruv-28" value="" style="ellipse;whiteSpace=wrap;html=1;" vertex="1" parent="1">
          <mxGeometry x="400" y="270" width="100" height="60" as="geometry" />
        </mxCell>
        <mxCell id="-m-niKMa6LhvtD6jWnJy-32" style="edgeStyle=orthogonalEdgeStyle;rounded=0;orthogonalLoop=1;jettySize=auto;html=1;exitX=0;exitY=0.5;exitDx=0;exitDy=0;entryX=1;entryY=0.5;entryDx=0;entryDy=0;endArrow=none;endFill=0;" parent="1" source="-m-niKMa6LhvtD6jWnJy-1" target="-m-niKMa6LhvtD6jWnJy-2" edge="1">
          <mxGeometry relative="1" as="geometry" />
        </mxCell>
        <mxCell id="-m-niKMa6LhvtD6jWnJy-33" style="rounded=0;orthogonalLoop=1;jettySize=auto;html=1;exitX=0;exitY=0.5;exitDx=0;exitDy=0;entryX=1;entryY=0.5;entryDx=0;entryDy=0;endArrow=none;endFill=0;" parent="1" source="-m-niKMa6LhvtD6jWnJy-1" target="-m-niKMa6LhvtD6jWnJy-3" edge="1">
          <mxGeometry relative="1" as="geometry" />
        </mxCell>
        <mxCell id="-m-niKMa6LhvtD6jWnJy-34" style="edgeStyle=orthogonalEdgeStyle;rounded=0;orthogonalLoop=1;jettySize=auto;html=1;exitX=0;exitY=0.5;exitDx=0;exitDy=0;entryX=1;entryY=0.5;entryDx=0;entryDy=0;endArrow=none;endFill=0;" parent="1" source="-m-niKMa6LhvtD6jWnJy-1" target="-m-niKMa6LhvtD6jWnJy-9" edge="1">
          <mxGeometry relative="1" as="geometry" />
        </mxCell>
        <mxCell id="-m-niKMa6LhvtD6jWnJy-35" style="edgeStyle=orthogonalEdgeStyle;rounded=0;orthogonalLoop=1;jettySize=auto;html=1;exitX=0;exitY=0.5;exitDx=0;exitDy=0;entryX=1;entryY=0.5;entryDx=0;entryDy=0;endArrow=none;endFill=0;" parent="1" source="-m-niKMa6LhvtD6jWnJy-1" target="-m-niKMa6LhvtD6jWnJy-12" edge="1">
          <mxGeometry relative="1" as="geometry" />
        </mxCell>
        <mxCell id="-m-niKMa6LhvtD6jWnJy-36" style="edgeStyle=orthogonalEdgeStyle;rounded=0;orthogonalLoop=1;jettySize=auto;html=1;exitX=0;exitY=0.5;exitDx=0;exitDy=0;entryX=1;entryY=0.5;entryDx=0;entryDy=0;endArrow=none;endFill=0;" parent="1" source="-m-niKMa6LhvtD6jWnJy-1" target="-m-niKMa6LhvtD6jWnJy-10" edge="1">
          <mxGeometry relative="1" as="geometry" />
        </mxCell>
        <mxCell id="-m-niKMa6LhvtD6jWnJy-37" style="rounded=0;orthogonalLoop=1;jettySize=auto;html=1;exitX=0;exitY=0.5;exitDx=0;exitDy=0;entryX=1;entryY=0.5;entryDx=0;entryDy=0;endArrow=none;endFill=0;" parent="1" source="-m-niKMa6LhvtD6jWnJy-1" target="-m-niKMa6LhvtD6jWnJy-11" edge="1">
          <mxGeometry relative="1" as="geometry" />
        </mxCell>
        <mxCell id="_TY_uDhqN5zBfUsbwruv-19" style="rounded=0;orthogonalLoop=1;jettySize=auto;html=1;entryX=0;entryY=0.5;entryDx=0;entryDy=0;endArrow=none;endFill=0;" edge="1" parent="1" source="-m-niKMa6LhvtD6jWnJy-1" target="-m-niKMa6LhvtD6jWnJy-48">
          <mxGeometry relative="1" as="geometry" />
        </mxCell>
        <mxCell id="-m-niKMa6LhvtD6jWnJy-1" value="&lt;font style=&quot;font-size: 18px;&quot;&gt;Giáo viên&lt;/font&gt;" style="rounded=0;whiteSpace=wrap;html=1;" parent="1" vertex="1">
          <mxGeometry x="554" y="290" width="120" height="60" as="geometry" />
        </mxCell>
        <mxCell id="-m-niKMa6LhvtD6jWnJy-2" value="&lt;u&gt;Mã số&lt;/u&gt;" style="ellipse;whiteSpace=wrap;html=1;" parent="1" vertex="1">
          <mxGeometry x="400" y="180" width="100" height="40" as="geometry" />
        </mxCell>
        <mxCell id="-m-niKMa6LhvtD6jWnJy-3" value="Họ và Tên" style="ellipse;whiteSpace=wrap;html=1;" parent="1" vertex="1">
          <mxGeometry x="520" y="150.83" width="100" height="40" as="geometry" />
        </mxCell>
        <mxCell id="-m-niKMa6LhvtD6jWnJy-9" value="Số điện thoại" style="ellipse;whiteSpace=wrap;html=1;" parent="1" vertex="1">
          <mxGeometry x="400" y="280" width="100" height="40" as="geometry" />
        </mxCell>
        <mxCell id="-m-niKMa6LhvtD6jWnJy-10" value="Địa chỉ" style="ellipse;whiteSpace=wrap;html=1;" parent="1" vertex="1">
          <mxGeometry x="400" y="380" width="100" height="40" as="geometry" />
        </mxCell>
        <mxCell id="-m-niKMa6LhvtD6jWnJy-11" value="Bằng cấp" style="ellipse;whiteSpace=wrap;html=1;" parent="1" vertex="1">
          <mxGeometry x="400" y="430" width="100" height="40" as="geometry" />
        </mxCell>
        <mxCell id="-m-niKMa6LhvtD6jWnJy-12" value="Năm sinh" style="ellipse;whiteSpace=wrap;html=1;" parent="1" vertex="1">
          <mxGeometry x="350" y="340" width="100" height="40" as="geometry" />
        </mxCell>
        <mxCell id="-m-niKMa6LhvtD6jWnJy-13" value="&lt;font style=&quot;font-size: 18px;&quot;&gt;Khóa học&lt;/font&gt;" style="rounded=0;whiteSpace=wrap;html=1;" parent="1" vertex="1">
          <mxGeometry x="510" y="640" width="120" height="60" as="geometry" />
        </mxCell>
        <mxCell id="-m-niKMa6LhvtD6jWnJy-14" value="&lt;span style=&quot;font-size: 14px;&quot;&gt;&lt;u&gt;Mã số&lt;/u&gt;&lt;/span&gt;" style="ellipse;whiteSpace=wrap;html=1;" parent="1" vertex="1">
          <mxGeometry x="700" y="910" width="100" height="40" as="geometry" />
        </mxCell>
        <mxCell id="-m-niKMa6LhvtD6jWnJy-15" value="Tên" style="ellipse;whiteSpace=wrap;html=1;" parent="1" vertex="1">
          <mxGeometry x="810" y="910" width="100" height="40" as="geometry" />
        </mxCell>
        <mxCell id="-m-niKMa6LhvtD6jWnJy-16" value="Mô tả" style="ellipse;whiteSpace=wrap;html=1;" parent="1" vertex="1">
          <mxGeometry x="930" y="910" width="100" height="40" as="geometry" />
        </mxCell>
        <mxCell id="-m-niKMa6LhvtD6jWnJy-39" style="rounded=0;orthogonalLoop=1;jettySize=auto;html=1;exitX=0.5;exitY=1;exitDx=0;exitDy=0;endArrow=none;endFill=0;" parent="1" source="-m-niKMa6LhvtD6jWnJy-23" target="-m-niKMa6LhvtD6jWnJy-14" edge="1">
          <mxGeometry relative="1" as="geometry" />
        </mxCell>
        <mxCell id="-m-niKMa6LhvtD6jWnJy-40" style="rounded=0;orthogonalLoop=1;jettySize=auto;html=1;exitX=0.5;exitY=1;exitDx=0;exitDy=0;endArrow=none;endFill=0;" parent="1" source="-m-niKMa6LhvtD6jWnJy-23" target="-m-niKMa6LhvtD6jWnJy-15" edge="1">
          <mxGeometry relative="1" as="geometry" />
        </mxCell>
        <mxCell id="-m-niKMa6LhvtD6jWnJy-41" style="rounded=0;orthogonalLoop=1;jettySize=auto;html=1;exitX=0.5;exitY=1;exitDx=0;exitDy=0;entryX=0.5;entryY=0;entryDx=0;entryDy=0;endArrow=none;endFill=0;" parent="1" source="-m-niKMa6LhvtD6jWnJy-23" target="-m-niKMa6LhvtD6jWnJy-16" edge="1">
          <mxGeometry relative="1" as="geometry" />
        </mxCell>
        <mxCell id="-m-niKMa6LhvtD6jWnJy-71" style="edgeStyle=orthogonalEdgeStyle;rounded=0;orthogonalLoop=1;jettySize=auto;html=1;exitX=1;exitY=0.5;exitDx=0;exitDy=0;entryX=0;entryY=0.5;entryDx=0;entryDy=0;endArrow=none;endFill=0;" parent="1" source="-m-niKMa6LhvtD6jWnJy-23" target="-m-niKMa6LhvtD6jWnJy-64" edge="1">
          <mxGeometry relative="1" as="geometry" />
        </mxCell>
        <mxCell id="-m-niKMa6LhvtD6jWnJy-23" value="&lt;font style=&quot;font-size: 18px;&quot;&gt;Lớp học&lt;/font&gt;" style="rounded=0;whiteSpace=wrap;html=1;" parent="1" vertex="1">
          <mxGeometry x="760" y="640" width="120" height="60" as="geometry" />
        </mxCell>
        <mxCell id="-m-niKMa6LhvtD6jWnJy-56" style="edgeStyle=orthogonalEdgeStyle;rounded=0;orthogonalLoop=1;jettySize=auto;html=1;exitX=1;exitY=0.5;exitDx=0;exitDy=0;entryX=0;entryY=0.5;entryDx=0;entryDy=0;endArrow=none;endFill=0;" parent="1" source="-m-niKMa6LhvtD6jWnJy-48" target="-m-niKMa6LhvtD6jWnJy-49" edge="1">
          <mxGeometry relative="1" as="geometry" />
        </mxCell>
        <mxCell id="-m-niKMa6LhvtD6jWnJy-57" style="edgeStyle=orthogonalEdgeStyle;rounded=0;orthogonalLoop=1;jettySize=auto;html=1;exitX=1;exitY=0.5;exitDx=0;exitDy=0;entryX=0;entryY=0.5;entryDx=0;entryDy=0;endArrow=none;endFill=0;" parent="1" source="-m-niKMa6LhvtD6jWnJy-48" target="-m-niKMa6LhvtD6jWnJy-50" edge="1">
          <mxGeometry relative="1" as="geometry" />
        </mxCell>
        <mxCell id="-m-niKMa6LhvtD6jWnJy-58" style="edgeStyle=orthogonalEdgeStyle;rounded=0;orthogonalLoop=1;jettySize=auto;html=1;exitX=1;exitY=0.5;exitDx=0;exitDy=0;entryX=0;entryY=0.5;entryDx=0;entryDy=0;endArrow=none;endFill=0;" parent="1" source="-m-niKMa6LhvtD6jWnJy-48" target="-m-niKMa6LhvtD6jWnJy-51" edge="1">
          <mxGeometry relative="1" as="geometry" />
        </mxCell>
        <mxCell id="-m-niKMa6LhvtD6jWnJy-59" style="edgeStyle=orthogonalEdgeStyle;rounded=0;orthogonalLoop=1;jettySize=auto;html=1;exitX=1;exitY=0.5;exitDx=0;exitDy=0;entryX=0;entryY=0.5;entryDx=0;entryDy=0;endArrow=none;endFill=0;" parent="1" source="-m-niKMa6LhvtD6jWnJy-48" target="-m-niKMa6LhvtD6jWnJy-54" edge="1">
          <mxGeometry relative="1" as="geometry" />
        </mxCell>
        <mxCell id="-m-niKMa6LhvtD6jWnJy-60" style="edgeStyle=orthogonalEdgeStyle;rounded=0;orthogonalLoop=1;jettySize=auto;html=1;exitX=1;exitY=0.5;exitDx=0;exitDy=0;entryX=0;entryY=0.5;entryDx=0;entryDy=0;endArrow=none;endFill=0;" parent="1" source="-m-niKMa6LhvtD6jWnJy-48" target="-m-niKMa6LhvtD6jWnJy-52" edge="1">
          <mxGeometry relative="1" as="geometry" />
        </mxCell>
        <mxCell id="-m-niKMa6LhvtD6jWnJy-48" value="&lt;font style=&quot;font-size: 18px;&quot;&gt;Học sinh&lt;/font&gt;" style="rounded=0;whiteSpace=wrap;html=1;" parent="1" vertex="1">
          <mxGeometry x="1040" y="295" width="120" height="55" as="geometry" />
        </mxCell>
        <mxCell id="-m-niKMa6LhvtD6jWnJy-49" value="&lt;u&gt;Mã số&lt;/u&gt;" style="ellipse;whiteSpace=wrap;html=1;" parent="1" vertex="1">
          <mxGeometry x="1350" y="90.83" width="100" height="40" as="geometry" />
        </mxCell>
        <mxCell id="-m-niKMa6LhvtD6jWnJy-50" value="Tên" style="ellipse;whiteSpace=wrap;html=1;" parent="1" vertex="1">
          <mxGeometry x="1350" y="140.82999999999998" width="100" height="40" as="geometry" />
        </mxCell>
        <mxCell id="-m-niKMa6LhvtD6jWnJy-51" value="Số điện thoại" style="ellipse;whiteSpace=wrap;html=1;" parent="1" vertex="1">
          <mxGeometry x="1350" y="190.82999999999998" width="100" height="40" as="geometry" />
        </mxCell>
        <mxCell id="-m-niKMa6LhvtD6jWnJy-52" value="Địa chỉ" style="ellipse;whiteSpace=wrap;html=1;" parent="1" vertex="1">
          <mxGeometry x="1350" y="290.83" width="100" height="40" as="geometry" />
        </mxCell>
        <mxCell id="-m-niKMa6LhvtD6jWnJy-53" value="Điểm" style="ellipse;whiteSpace=wrap;html=1;" parent="1" vertex="1">
          <mxGeometry x="1350" y="383.33" width="100" height="40" as="geometry" />
        </mxCell>
        <mxCell id="-m-niKMa6LhvtD6jWnJy-54" value="Năm sinh" style="ellipse;whiteSpace=wrap;html=1;" parent="1" vertex="1">
          <mxGeometry x="1350" y="240.82999999999998" width="100" height="40" as="geometry" />
        </mxCell>
        <mxCell id="-m-niKMa6LhvtD6jWnJy-68" style="edgeStyle=orthogonalEdgeStyle;rounded=0;orthogonalLoop=1;jettySize=auto;html=1;exitX=1;exitY=0.5;exitDx=0;exitDy=0;entryX=0;entryY=0.5;entryDx=0;entryDy=0;endArrow=none;endFill=0;" parent="1" source="-m-niKMa6LhvtD6jWnJy-64" target="-m-niKMa6LhvtD6jWnJy-65" edge="1">
          <mxGeometry relative="1" as="geometry" />
        </mxCell>
        <mxCell id="-m-niKMa6LhvtD6jWnJy-70" style="edgeStyle=orthogonalEdgeStyle;rounded=0;orthogonalLoop=1;jettySize=auto;html=1;exitX=1;exitY=0.5;exitDx=0;exitDy=0;entryX=0;entryY=0.5;entryDx=0;entryDy=0;endArrow=none;endFill=0;" parent="1" source="-m-niKMa6LhvtD6jWnJy-64" target="-m-niKMa6LhvtD6jWnJy-67" edge="1">
          <mxGeometry relative="1" as="geometry" />
        </mxCell>
        <mxCell id="-m-niKMa6LhvtD6jWnJy-64" value="Các buổi học" style="ellipse;whiteSpace=wrap;html=1;" parent="1" vertex="1">
          <mxGeometry x="950" y="730" width="100" height="40" as="geometry" />
        </mxCell>
        <mxCell id="-m-niKMa6LhvtD6jWnJy-65" value="Thứ" style="ellipse;whiteSpace=wrap;html=1;" parent="1" vertex="1">
          <mxGeometry x="1191" y="730" width="100" height="40" as="geometry" />
        </mxCell>
        <mxCell id="_TY_uDhqN5zBfUsbwruv-25" style="edgeStyle=orthogonalEdgeStyle;rounded=0;orthogonalLoop=1;jettySize=auto;html=1;entryX=1;entryY=0.5;entryDx=0;entryDy=0;endArrow=none;endFill=0;" edge="1" parent="1" source="-m-niKMa6LhvtD6jWnJy-66" target="-m-niKMa6LhvtD6jWnJy-64">
          <mxGeometry relative="1" as="geometry" />
        </mxCell>
        <mxCell id="-m-niKMa6LhvtD6jWnJy-66" value="Giờ bắt đầu" style="ellipse;whiteSpace=wrap;html=1;" parent="1" vertex="1">
          <mxGeometry x="1170" y="820" width="100" height="40" as="geometry" />
        </mxCell>
        <mxCell id="-m-niKMa6LhvtD6jWnJy-67" value="Giờ kết thúc" style="ellipse;whiteSpace=wrap;html=1;align=center;dashed=1;" parent="1" vertex="1">
          <mxGeometry x="1100" y="890" width="100" height="40" as="geometry" />
        </mxCell>
        <mxCell id="-m-niKMa6LhvtD6jWnJy-77" value="" style="endArrow=none;html=1;rounded=0;exitX=1;exitY=0.5;exitDx=0;exitDy=0;entryX=0.5;entryY=0;entryDx=0;entryDy=0;" parent="1" source="-m-niKMa6LhvtD6jWnJy-1" target="-m-niKMa6LhvtD6jWnJy-23" edge="1">
          <mxGeometry relative="1" as="geometry">
            <mxPoint x="670" y="590" as="sourcePoint" />
            <mxPoint x="830" y="590" as="targetPoint" />
          </mxGeometry>
        </mxCell>
        <mxCell id="-m-niKMa6LhvtD6jWnJy-78" value="(1,N)" style="resizable=0;html=1;whiteSpace=wrap;align=left;verticalAlign=bottom;" parent="-m-niKMa6LhvtD6jWnJy-77" connectable="0" vertex="1">
          <mxGeometry x="-1" relative="1" as="geometry">
            <mxPoint x="-14" y="60" as="offset" />
          </mxGeometry>
        </mxCell>
        <mxCell id="-m-niKMa6LhvtD6jWnJy-79" value="(1,1)" style="resizable=0;html=1;whiteSpace=wrap;align=right;verticalAlign=bottom;" parent="-m-niKMa6LhvtD6jWnJy-77" connectable="0" vertex="1">
          <mxGeometry x="1" relative="1" as="geometry">
            <mxPoint x="-20" y="-10" as="offset" />
          </mxGeometry>
        </mxCell>
        <mxCell id="-m-niKMa6LhvtD6jWnJy-83" value="&lt;font style=&quot;font-size: 18px;&quot;&gt;Phụ trách&lt;/font&gt;" style="edgeLabel;html=1;align=center;verticalAlign=middle;resizable=0;points=[];" parent="-m-niKMa6LhvtD6jWnJy-77" vertex="1" connectable="0">
          <mxGeometry x="-0.2977" y="2" relative="1" as="geometry">
            <mxPoint as="offset" />
          </mxGeometry>
        </mxCell>
        <mxCell id="-m-niKMa6LhvtD6jWnJy-80" value="" style="endArrow=none;html=1;rounded=0;exitX=1;exitY=0.5;exitDx=0;exitDy=0;" parent="1" source="-m-niKMa6LhvtD6jWnJy-13" target="-m-niKMa6LhvtD6jWnJy-23" edge="1">
          <mxGeometry relative="1" as="geometry">
            <mxPoint x="670" y="590" as="sourcePoint" />
            <mxPoint x="830" y="590" as="targetPoint" />
          </mxGeometry>
        </mxCell>
        <mxCell id="-m-niKMa6LhvtD6jWnJy-81" value="(1,N)" style="resizable=0;html=1;whiteSpace=wrap;align=left;verticalAlign=bottom;" parent="-m-niKMa6LhvtD6jWnJy-80" connectable="0" vertex="1">
          <mxGeometry x="-1" relative="1" as="geometry" />
        </mxCell>
        <mxCell id="-m-niKMa6LhvtD6jWnJy-82" value="(1,1)" style="resizable=0;html=1;whiteSpace=wrap;align=right;verticalAlign=bottom;" parent="-m-niKMa6LhvtD6jWnJy-80" connectable="0" vertex="1">
          <mxGeometry x="1" relative="1" as="geometry" />
        </mxCell>
        <mxCell id="-m-niKMa6LhvtD6jWnJy-84" value="&lt;font style=&quot;font-size: 18px;&quot;&gt;Gồm&lt;/font&gt;" style="edgeLabel;html=1;align=center;verticalAlign=middle;resizable=0;points=[];" parent="-m-niKMa6LhvtD6jWnJy-80" vertex="1" connectable="0">
          <mxGeometry x="-0.2282" y="-1" relative="1" as="geometry">
            <mxPoint as="offset" />
          </mxGeometry>
        </mxCell>
        <mxCell id="-m-niKMa6LhvtD6jWnJy-86" value="" style="endArrow=none;html=1;rounded=0;entryX=0.5;entryY=1;entryDx=0;entryDy=0;exitX=0.617;exitY=-0.067;exitDx=0;exitDy=0;exitPerimeter=0;" parent="1" target="-m-niKMa6LhvtD6jWnJy-48" edge="1" source="-m-niKMa6LhvtD6jWnJy-23">
          <mxGeometry relative="1" as="geometry">
            <mxPoint x="820" y="640" as="sourcePoint" />
            <mxPoint x="1500" y="400" as="targetPoint" />
          </mxGeometry>
        </mxCell>
        <mxCell id="-m-niKMa6LhvtD6jWnJy-87" value="(1,N)" style="resizable=0;html=1;whiteSpace=wrap;align=left;verticalAlign=bottom;" parent="-m-niKMa6LhvtD6jWnJy-86" connectable="0" vertex="1">
          <mxGeometry x="-1" relative="1" as="geometry">
            <mxPoint x="10" y="-10" as="offset" />
          </mxGeometry>
        </mxCell>
        <mxCell id="-m-niKMa6LhvtD6jWnJy-88" value="(1,N)" style="resizable=0;html=1;whiteSpace=wrap;align=right;verticalAlign=bottom;" parent="-m-niKMa6LhvtD6jWnJy-86" connectable="0" vertex="1">
          <mxGeometry x="1" relative="1" as="geometry">
            <mxPoint x="30" y="20" as="offset" />
          </mxGeometry>
        </mxCell>
        <mxCell id="-m-niKMa6LhvtD6jWnJy-89" value="&lt;font style=&quot;font-size: 14px;&quot;&gt;tham gia&lt;br&gt;&lt;br&gt;&lt;/font&gt;" style="edgeLabel;html=1;align=center;verticalAlign=middle;resizable=0;points=[];" parent="-m-niKMa6LhvtD6jWnJy-86" vertex="1" connectable="0">
          <mxGeometry x="0.0488" y="-2" relative="1" as="geometry">
            <mxPoint as="offset" />
          </mxGeometry>
        </mxCell>
        <mxCell id="-m-niKMa6LhvtD6jWnJy-93" value="" style="endArrow=none;html=1;rounded=0;exitX=1;exitY=0.5;exitDx=0;exitDy=0;entryX=0;entryY=0.5;entryDx=0;entryDy=0;" parent="1" source="-m-niKMa6LhvtD6jWnJy-48" target="-m-niKMa6LhvtD6jWnJy-53" edge="1">
          <mxGeometry relative="1" as="geometry">
            <mxPoint x="1170" y="370.83" as="sourcePoint" />
            <mxPoint x="1330" y="370.83" as="targetPoint" />
          </mxGeometry>
        </mxCell>
        <mxCell id="-m-niKMa6LhvtD6jWnJy-94" value="1" style="resizable=0;html=1;whiteSpace=wrap;align=left;verticalAlign=bottom;" parent="-m-niKMa6LhvtD6jWnJy-93" connectable="0" vertex="1">
          <mxGeometry x="-1" relative="1" as="geometry">
            <mxPoint y="28" as="offset" />
          </mxGeometry>
        </mxCell>
        <mxCell id="-m-niKMa6LhvtD6jWnJy-95" value="(1,1)" style="resizable=0;html=1;whiteSpace=wrap;align=right;verticalAlign=bottom;" parent="-m-niKMa6LhvtD6jWnJy-93" connectable="0" vertex="1">
          <mxGeometry x="1" relative="1" as="geometry">
            <mxPoint x="-10" y="8" as="offset" />
          </mxGeometry>
        </mxCell>
        <mxCell id="_TY_uDhqN5zBfUsbwruv-6" style="edgeStyle=orthogonalEdgeStyle;rounded=0;orthogonalLoop=1;jettySize=auto;html=1;entryX=0;entryY=0;entryDx=0;entryDy=0;endArrow=none;endFill=0;" edge="1" parent="1" source="_TY_uDhqN5zBfUsbwruv-1" target="-m-niKMa6LhvtD6jWnJy-13">
          <mxGeometry relative="1" as="geometry">
            <Array as="points">
              <mxPoint x="520" y="585" />
              <mxPoint x="520" y="640" />
            </Array>
          </mxGeometry>
        </mxCell>
        <mxCell id="-m-niKMa6LhvtD6jWnJy-96" value="&lt;font style=&quot;font-size: 18px;&quot;&gt;Trần Nam Phong&amp;nbsp;&lt;br&gt;B20DCVT288&lt;/font&gt;" style="rounded=1;arcSize=10;whiteSpace=wrap;html=1;align=center;" vertex="1" parent="1">
          <mxGeometry x="1360" y="170" width="170" height="50" as="geometry" />
        </mxCell>
        <mxCell id="WvYnCzxHNMJH8QfInhcj-1" value="" style="endArrow=none;html=1;rounded=0;exitX=1;exitY=0.5;exitDx=0;exitDy=0;entryX=0;entryY=0.5;entryDx=0;entryDy=0;" edge="1" parent="1" source="-m-niKMa6LhvtD6jWnJy-1" target="-m-niKMa6LhvtD6jWnJy-48">
          <mxGeometry relative="1" as="geometry">
            <mxPoint x="840" y="360" as="sourcePoint" />
            <mxPoint x="1000" y="360" as="targetPoint" />
          </mxGeometry>
        </mxCell>
        <mxCell id="WvYnCzxHNMJH8QfInhcj-2" value="(1,N)" style="resizable=0;html=1;whiteSpace=wrap;align=left;verticalAlign=bottom;" connectable="0" vertex="1" parent="WvYnCzxHNMJH8QfInhcj-1">
          <mxGeometry x="-1" relative="1" as="geometry" />
        </mxCell>
        <mxCell id="WvYnCzxHNMJH8QfInhcj-4" value="&lt;font style=&quot;font-size: 18px;&quot;&gt;Quản lý&lt;/font&gt;" style="edgeLabel;html=1;align=center;verticalAlign=middle;resizable=0;points=[];" connectable="0" vertex="1" parent="WvYnCzxHNMJH8QfInhcj-1">
          <mxGeometry x="-0.0035" y="1" relative="1" as="geometry">
            <mxPoint as="offset" />
          </mxGeometry>
        </mxCell>
        <mxCell id="_TY_uDhqN5zBfUsbwruv-7" style="edgeStyle=orthogonalEdgeStyle;rounded=0;orthogonalLoop=1;jettySize=auto;html=1;entryX=0;entryY=0.5;entryDx=0;entryDy=0;endArrow=none;endFill=0;" edge="1" parent="1" source="_TY_uDhqN5zBfUsbwruv-3" target="-m-niKMa6LhvtD6jWnJy-13">
          <mxGeometry relative="1" as="geometry" />
        </mxCell>
        <mxCell id="_TY_uDhqN5zBfUsbwruv-3" value="Tên" style="ellipse;whiteSpace=wrap;html=1;" vertex="1" parent="1">
          <mxGeometry x="240" y="650" width="120" height="80" as="geometry" />
        </mxCell>
        <mxCell id="_TY_uDhqN5zBfUsbwruv-8" style="edgeStyle=orthogonalEdgeStyle;rounded=0;orthogonalLoop=1;jettySize=auto;html=1;entryX=0.167;entryY=1.067;entryDx=0;entryDy=0;entryPerimeter=0;endArrow=none;endFill=0;" edge="1" parent="1" source="_TY_uDhqN5zBfUsbwruv-4" target="-m-niKMa6LhvtD6jWnJy-13">
          <mxGeometry relative="1" as="geometry" />
        </mxCell>
        <mxCell id="_TY_uDhqN5zBfUsbwruv-4" value="Mô tả" style="ellipse;whiteSpace=wrap;html=1;" vertex="1" parent="1">
          <mxGeometry x="240" y="760" width="120" height="80" as="geometry" />
        </mxCell>
        <mxCell id="_TY_uDhqN5zBfUsbwruv-13" style="rounded=0;orthogonalLoop=1;jettySize=auto;html=1;entryX=0.5;entryY=1;entryDx=0;entryDy=0;endArrow=none;endFill=0;" edge="1" parent="1" source="_TY_uDhqN5zBfUsbwruv-11" target="-m-niKMa6LhvtD6jWnJy-23">
          <mxGeometry relative="1" as="geometry">
            <mxPoint x="760" y="850" as="targetPoint" />
          </mxGeometry>
        </mxCell>
        <mxCell id="_TY_uDhqN5zBfUsbwruv-11" value="Ngày bắt đầu" style="ellipse;whiteSpace=wrap;html=1;" vertex="1" parent="1">
          <mxGeometry x="530" y="830" width="100" height="40" as="geometry" />
        </mxCell>
        <mxCell id="_TY_uDhqN5zBfUsbwruv-14" style="rounded=0;orthogonalLoop=1;jettySize=auto;html=1;entryX=0.5;entryY=1;entryDx=0;entryDy=0;endArrow=none;endFill=0;" edge="1" parent="1" source="_TY_uDhqN5zBfUsbwruv-12" target="-m-niKMa6LhvtD6jWnJy-23">
          <mxGeometry relative="1" as="geometry">
            <mxPoint x="680" y="800" as="targetPoint" />
          </mxGeometry>
        </mxCell>
        <mxCell id="_TY_uDhqN5zBfUsbwruv-12" value="Ngày kết thúc" style="ellipse;whiteSpace=wrap;html=1;" vertex="1" parent="1">
          <mxGeometry x="564" y="900" width="100" height="40" as="geometry" />
        </mxCell>
        <mxCell id="_TY_uDhqN5zBfUsbwruv-20" value="Quản lí" style="text;html=1;align=center;verticalAlign=middle;resizable=0;points=[];autosize=1;strokeColor=none;fillColor=none;" vertex="1" parent="1">
          <mxGeometry x="880" y="290" width="60" height="30" as="geometry" />
        </mxCell>
        <mxCell id="_TY_uDhqN5zBfUsbwruv-22" value="(1,N)" style="text;html=1;align=center;verticalAlign=middle;resizable=0;points=[];autosize=1;strokeColor=none;fillColor=none;" vertex="1" parent="1">
          <mxGeometry x="710" y="285" width="50" height="30" as="geometry" />
        </mxCell>
      </root>
    </mxGraphModel>
  </diagram>
</mxfile>
